<svg xmlns="http://www.w3.org/2000/svg" viewBox="0 0 769 199" width="769" height="199"><path d="M58.0 143.2Q48.76 143.2 41.92 140.07999999999998Q35.08 136.96 31.36 131.32Q27.64 125.68 27.64 118.0H45.64Q45.64 122.44 49.06 125.02Q52.480000000000004 127.6 58.36 127.6Q64.0 127.6 67.18 125.08Q70.36 122.56 70.36 118.12Q70.36 114.28 67.96000000000001 111.52Q65.56 108.75999999999999 61.24 107.80000000000001L52.36 105.75999999999999Q41.2 103.12 35.02 95.98Q28.84 88.84 28.84 78.52000000000001Q28.84 70.84 32.38 65.14Q35.92 59.44 42.4 56.32Q48.879999999999995 53.2 57.76 53.2Q71.19999999999999 53.2 79.06 59.86Q86.92 66.52 86.92 77.8H68.92Q68.92 73.60000000000001 65.98 71.2Q63.04 68.8 57.519999999999996 68.8Q52.36 68.8 49.6 71.14Q46.84 73.48 46.84 77.8Q46.84 81.64 49.06 84.34Q51.28 87.03999999999999 55.36 88.0L64.72 90.16Q76.36 92.80000000000001 82.36 99.7Q88.36 106.6 88.36 117.28Q88.36 124.96000000000001 84.58 130.84Q80.8 136.72 74.02 139.95999999999998Q67.24 143.2 58.0 143.2Z" fill="#ffffff" stroke="#ffffff" stroke-width="28.00" stroke-linejoin="round"/><path d="M130.36 143.2Q121.6 143.2 115.0 139.89999999999998Q108.4 136.6 104.80000000000001 130.66Q101.2 124.72 101.2 116.8V101.2Q101.2 93.16 104.80000000000001 87.28Q108.4 81.4 115.0 78.1Q121.6 74.8 130.36 74.8Q143.44 74.8 151.24 81.4Q159.04 88.0 159.51999999999998 99.4H141.51999999999998Q141.16 95.2 138.22 92.80000000000001Q135.28 90.4 130.36 90.4Q124.96 90.4 122.08 93.16Q119.2 95.92 119.2 101.2V116.8Q119.2 121.96000000000001 122.08 124.78Q124.96 127.6 130.36 127.6Q135.28 127.6 138.22 125.25999999999999Q141.16 122.92 141.51999999999998 118.6H159.51999999999998Q159.04 130.0 151.24 136.6Q143.44 143.2 130.36 143.2Z" fill="#ffffff" stroke="#ffffff" stroke-width="28.00" stroke-linejoin="round"/><path d="M250.72 163.6V76.0H268.12V88.6H272.32L268.12 92.80000000000001Q268.12 84.28 272.8 79.53999999999999Q277.48 74.8 285.64 74.8Q295.6 74.8 301.6 81.82Q307.6 88.84 307.6 100.6V117.4Q307.6 125.2 304.9 131.02Q302.2 136.84 297.28 140.01999999999998Q292.36 143.2 285.64 143.2Q277.48 143.2 272.8 138.45999999999998Q268.12 133.72 268.12 125.2L272.32 129.4H268.12L268.72 145.6V163.6ZM279.16 127.6Q284.2 127.6 286.9 124.78Q289.6 121.96000000000001 289.6 116.8V101.2Q289.6 95.92 286.9 93.16Q284.2 90.4 279.16 90.4Q274.24 90.4 271.48 93.22Q268.72 96.03999999999999 268.72 101.2V116.8Q268.72 121.96000000000001 271.48 124.78Q274.24 127.6 279.16 127.6Z" fill="#ffffff" stroke="#ffffff" stroke-width="28.00" stroke-linejoin="round"/><path d="M350.92 143.2Q342.16 143.2 335.62 139.89999999999998Q329.08 136.6 325.53999999999996 130.66Q322.0 124.72 322.0 116.8V101.2Q322.0 93.28 325.53999999999996 87.34Q329.08 81.4 335.62 78.1Q342.16 74.8 350.92 74.8Q359.68 74.8 366.1 78.1Q372.52 81.4 376.06 87.34Q379.6 93.28 379.6 101.2V113.2H339.16V116.8Q339.16 123.03999999999999 342.16 126.22Q345.16 129.4 351.16 129.4Q355.36 129.4 357.94 127.96000000000001Q360.52 126.52 361.36 124.0H379.0Q376.84000000000003 132.64 369.22 137.92Q361.6 143.2 350.92 143.2ZM362.44 103.96000000000001V100.96000000000001Q362.44 94.84 359.62 91.6Q356.8 88.36 350.92 88.36Q345.04 88.36 342.1 91.72Q339.16 95.08 339.16 101.2V103.0L363.64 102.75999999999999Z" fill="#ffffff" stroke="#ffffff" stroke-width="28.00" stroke-linejoin="round"/><path d="M394.72 142.0V54.400000000000006H422.92Q436.24 54.400000000000006 444.16 60.46Q452.08000000000004 66.52 452.08000000000004 76.84Q452.08000000000004 82.6 449.38 86.92Q446.68 91.24000000000001 442.18 93.64Q437.68 96.03999999999999 432.40000000000003 96.03999999999999V96.4Q438.28000000000003 96.28 443.14 98.56Q448.0 100.84 451.0 105.4Q454.0 109.96000000000001 454.0 116.68Q454.0 124.36 450.34000000000003 130.06Q446.68 135.76 439.96000000000004 138.88Q433.24 142.0 424.0 142.0ZM412.12 127.48H423.28000000000003Q429.16 127.48 432.52 124.36000000000001Q435.88 121.24000000000001 435.88 115.72Q435.88 110.2 432.52 107.02000000000001Q429.16 103.84 423.28000000000003 103.84H412.12ZM412.12 89.68H422.68Q427.96000000000004 89.68 430.96000000000004 86.86Q433.96000000000004 84.03999999999999 433.96000000000004 79.24000000000001Q433.96000000000004 74.32000000000001 430.96000000000004 71.62Q427.96000000000004 68.92 422.68 68.92H412.12Z" fill="#ffffff" stroke="#ffffff" stroke-width="28.00" stroke-linejoin="round"/><path d="M494.92 143.2Q486.16 143.2 479.62 139.89999999999998Q473.08 136.6 469.53999999999996 130.66Q466.0 124.72 466.0 116.8V101.2Q466.0 93.28 469.53999999999996 87.34Q473.08 81.4 479.62 78.1Q486.16 74.8 494.92 74.8Q503.68 74.8 510.1 78.1Q516.52 81.4 520.06 87.34Q523.6 93.28 523.6 101.2V113.2H483.16V116.8Q483.16 123.03999999999999 486.16 126.22Q489.16 129.4 495.16 129.4Q499.36 129.4 501.94 127.96000000000001Q504.52 126.52 505.36 124.0H523.0Q520.84 132.64 513.22 137.92Q505.6 143.2 494.92 143.2ZM506.44 103.96000000000001V100.96000000000001Q506.44 94.84 503.62 91.6Q500.8 88.36 494.92 88.36Q489.04 88.36 486.1 91.72Q483.16 95.08 483.16 101.2V103.0L507.64 102.75999999999999Z" fill="#ffffff" stroke="#ffffff" stroke-width="28.00" stroke-linejoin="round"/><path d="M538.7199999999999 142.0V76.0H556.12V88.6H561.4L556.12 92.80000000000001Q556.12 84.4 560.92 79.6Q565.7199999999999 74.8 573.88 74.8Q583.4799999999999 74.8 589.3 81.52000000000001Q595.1199999999999 88.24000000000001 595.1199999999999 99.4V142.0H577.12V101.2Q577.12 96.03999999999999 574.42 93.22Q571.7199999999999 90.4 566.8 90.4Q562.0 90.4 559.3599999999999 93.22Q556.7199999999999 96.03999999999999 556.7199999999999 101.2V142.0Z" fill="#ffffff" stroke="#ffffff" stroke-width="28.00" stroke-linejoin="round"/><path d="M639.16 143.2Q630.4 143.2 623.8 139.89999999999998Q617.1999999999999 136.6 613.5999999999999 130.66Q610.0 124.72 610.0 116.8V101.2Q610.0 93.16 613.5999999999999 87.28Q617.1999999999999 81.4 623.8 78.1Q630.4 74.8 639.16 74.8Q652.24 74.8 660.04 81.4Q667.8399999999999 88.0 668.3199999999999 99.4H650.3199999999999Q649.9599999999999 95.2 647.02 92.80000000000001Q644.0799999999999 90.4 639.16 90.4Q633.76 90.4 630.88 93.16Q628.0 95.92 628.0 101.2V116.8Q628.0 121.96000000000001 630.88 124.78Q633.76 127.6 639.16 127.6Q644.0799999999999 127.6 647.02 125.25999999999999Q649.9599999999999 122.92 650.3199999999999 118.6H668.3199999999999Q667.8399999999999 130.0 660.04 136.6Q652.24 143.2 639.16 143.2Z" fill="#ffffff" stroke="#ffffff" stroke-width="28.00" stroke-linejoin="round"/><path d="M682.7199999999999 142.0V54.400000000000006H700.7199999999999V76.0L700.12 88.6H705.4L700.12 92.80000000000001Q700.12 84.4 704.92 79.6Q709.7199999999999 74.8 717.88 74.8Q727.4799999999999 74.8 733.3 81.52000000000001Q739.1199999999999 88.24000000000001 739.1199999999999 99.4V142.0H721.12V101.2Q721.12 96.03999999999999 718.42 93.22Q715.7199999999999 90.4 710.8 90.4Q706.0 90.4 703.3599999999999 93.22Q700.7199999999999 96.03999999999999 700.7199999999999 101.2V142.0Z" fill="#ffffff" stroke="#ffffff" stroke-width="28.00" stroke-linejoin="round"/><circle cx="204.40" cy="109.00" r="30.79" fill="none" stroke="#ffffff" stroke-width="34.81"/><line x1="204.40" y1="79.39" x2="204.40" y2="92.42" stroke="#ffffff" stroke-width="34.16" stroke-linecap="round"/><line x1="204.40" y1="125.58" x2="204.40" y2="138.61" stroke="#ffffff" stroke-width="34.16" stroke-linecap="round"/><line x1="174.79" y1="109.00" x2="187.82" y2="109.00" stroke="#ffffff" stroke-width="34.16" stroke-linecap="round"/><line x1="220.98" y1="109.00" x2="234.01" y2="109.00" stroke="#ffffff" stroke-width="34.16" stroke-linecap="round"/><circle cx="204.40" cy="109.00" r="21.70" fill="#ffffff"/><path d="M58.0 143.2Q48.76 143.2 41.92 140.07999999999998Q35.08 136.96 31.36 131.32Q27.64 125.68 27.64 118.0H45.64Q45.64 122.44 49.06 125.02Q52.480000000000004 127.6 58.36 127.6Q64.0 127.6 67.18 125.08Q70.36 122.56 70.36 118.12Q70.36 114.28 67.96000000000001 111.52Q65.56 108.75999999999999 61.24 107.80000000000001L52.36 105.75999999999999Q41.2 103.12 35.02 95.98Q28.84 88.84 28.84 78.52000000000001Q28.84 70.84 32.38 65.14Q35.92 59.44 42.4 56.32Q48.879999999999995 53.2 57.76 53.2Q71.19999999999999 53.2 79.06 59.86Q86.92 66.52 86.92 77.8H68.92Q68.92 73.60000000000001 65.98 71.2Q63.04 68.8 57.519999999999996 68.8Q52.36 68.8 49.6 71.14Q46.84 73.48 46.84 77.8Q46.84 81.64 49.06 84.34Q51.28 87.03999999999999 55.36 88.0L64.72 90.16Q76.36 92.80000000000001 82.36 99.7Q88.36 106.6 88.36 117.28Q88.36 124.96000000000001 84.58 130.84Q80.8 136.72 74.02 139.95999999999998Q67.24 143.2 58.0 143.2Z" fill="#17130b"/><path d="M130.36 143.2Q121.6 143.2 115.0 139.89999999999998Q108.4 136.6 104.80000000000001 130.66Q101.2 124.72 101.2 116.8V101.2Q101.2 93.16 104.80000000000001 87.28Q108.4 81.4 115.0 78.1Q121.6 74.8 130.36 74.8Q143.44 74.8 151.24 81.4Q159.04 88.0 159.51999999999998 99.4H141.51999999999998Q141.16 95.2 138.22 92.80000000000001Q135.28 90.4 130.36 90.4Q124.96 90.4 122.08 93.16Q119.2 95.92 119.2 101.2V116.8Q119.2 121.96000000000001 122.08 124.78Q124.96 127.6 130.36 127.6Q135.28 127.6 138.22 125.25999999999999Q141.16 122.92 141.51999999999998 118.6H159.51999999999998Q159.04 130.0 151.24 136.6Q143.44 143.2 130.36 143.2Z" fill="#17130b"/><circle cx="204.40" cy="109.00" r="30.79" fill="none" stroke="#e8a33d" stroke-width="6.81"/><line x1="204.40" y1="79.39" x2="204.40" y2="92.42" stroke="#e8a33d" stroke-width="6.16" stroke-linecap="round"/><line x1="204.40" y1="125.58" x2="204.40" y2="138.61" stroke="#e8a33d" stroke-width="6.16" stroke-linecap="round"/><line x1="174.79" y1="109.00" x2="187.82" y2="109.00" stroke="#e8a33d" stroke-width="6.16" stroke-linecap="round"/><line x1="220.98" y1="109.00" x2="234.01" y2="109.00" stroke="#e8a33d" stroke-width="6.16" stroke-linecap="round"/><circle cx="204.40" cy="109.00" r="7.70" fill="#e8a33d"/><path d="M250.72 163.6V76.0H268.12V88.6H272.32L268.12 92.80000000000001Q268.12 84.28 272.8 79.53999999999999Q277.48 74.8 285.64 74.8Q295.6 74.8 301.6 81.82Q307.6 88.84 307.6 100.6V117.4Q307.6 125.2 304.9 131.02Q302.2 136.84 297.28 140.01999999999998Q292.36 143.2 285.64 143.2Q277.48 143.2 272.8 138.45999999999998Q268.12 133.72 268.12 125.2L272.32 129.4H268.12L268.72 145.6V163.6ZM279.16 127.6Q284.2 127.6 286.9 124.78Q289.6 121.96000000000001 289.6 116.8V101.2Q289.6 95.92 286.9 93.16Q284.2 90.4 279.16 90.4Q274.24 90.4 271.48 93.22Q268.72 96.03999999999999 268.72 101.2V116.8Q268.72 121.96000000000001 271.48 124.78Q274.24 127.6 279.16 127.6Z" fill="#17130b"/><path d="M350.92 143.2Q342.16 143.2 335.62 139.89999999999998Q329.08 136.6 325.53999999999996 130.66Q322.0 124.72 322.0 116.8V101.2Q322.0 93.28 325.53999999999996 87.34Q329.08 81.4 335.62 78.1Q342.16 74.8 350.92 74.8Q359.68 74.8 366.1 78.1Q372.52 81.4 376.06 87.34Q379.6 93.28 379.6 101.2V113.2H339.16V116.8Q339.16 123.03999999999999 342.16 126.22Q345.16 129.4 351.16 129.4Q355.36 129.4 357.94 127.96000000000001Q360.52 126.52 361.36 124.0H379.0Q376.84000000000003 132.64 369.22 137.92Q361.6 143.2 350.92 143.2ZM362.44 103.96000000000001V100.96000000000001Q362.44 94.84 359.62 91.6Q356.8 88.36 350.92 88.36Q345.04 88.36 342.1 91.72Q339.16 95.08 339.16 101.2V103.0L363.64 102.75999999999999Z" fill="#17130b"/><path d="M394.72 142.0V54.400000000000006H422.92Q436.24 54.400000000000006 444.16 60.46Q452.08000000000004 66.52 452.08000000000004 76.84Q452.08000000000004 82.6 449.38 86.92Q446.68 91.24000000000001 442.18 93.64Q437.68 96.03999999999999 432.40000000000003 96.03999999999999V96.4Q438.28000000000003 96.28 443.14 98.56Q448.0 100.84 451.0 105.4Q454.0 109.96000000000001 454.0 116.68Q454.0 124.36 450.34000000000003 130.06Q446.68 135.76 439.96000000000004 138.88Q433.24 142.0 424.0 142.0ZM412.12 127.48H423.28000000000003Q429.16 127.48 432.52 124.36000000000001Q435.88 121.24000000000001 435.88 115.72Q435.88 110.2 432.52 107.02000000000001Q429.16 103.84 423.28000000000003 103.84H412.12ZM412.12 89.68H422.68Q427.96000000000004 89.68 430.96000000000004 86.86Q433.96000000000004 84.03999999999999 433.96000000000004 79.24000000000001Q433.96000000000004 74.32000000000001 430.96000000000004 71.62Q427.96000000000004 68.92 422.68 68.92H412.12Z" fill="#17130b"/><path d="M494.92 143.2Q486.16 143.2 479.62 139.89999999999998Q473.08 136.6 469.53999999999996 130.66Q466.0 124.72 466.0 116.8V101.2Q466.0 93.28 469.53999999999996 87.34Q473.08 81.4 479.62 78.1Q486.16 74.8 494.92 74.8Q503.68 74.8 510.1 78.1Q516.52 81.4 520.06 87.34Q523.6 93.28 523.6 101.2V113.2H483.16V116.8Q483.16 123.03999999999999 486.16 126.22Q489.16 129.4 495.16 129.4Q499.36 129.4 501.94 127.96000000000001Q504.52 126.52 505.36 124.0H523.0Q520.84 132.64 513.22 137.92Q505.6 143.2 494.92 143.2ZM506.44 103.96000000000001V100.96000000000001Q506.44 94.84 503.62 91.6Q500.8 88.36 494.92 88.36Q489.04 88.36 486.1 91.72Q483.16 95.08 483.16 101.2V103.0L507.64 102.75999999999999Z" fill="#17130b"/><path d="M538.7199999999999 142.0V76.0H556.12V88.6H561.4L556.12 92.80000000000001Q556.12 84.4 560.92 79.6Q565.7199999999999 74.8 573.88 74.8Q583.4799999999999 74.8 589.3 81.52000000000001Q595.1199999999999 88.24000000000001 595.1199999999999 99.4V142.0H577.12V101.2Q577.12 96.03999999999999 574.42 93.22Q571.7199999999999 90.4 566.8 90.4Q562.0 90.4 559.3599999999999 93.22Q556.7199999999999 96.03999999999999 556.7199999999999 101.2V142.0Z" fill="#17130b"/><path d="M639.16 143.2Q630.4 143.2 623.8 139.89999999999998Q617.1999999999999 136.6 613.5999999999999 130.66Q610.0 124.72 610.0 116.8V101.2Q610.0 93.16 613.5999999999999 87.28Q617.1999999999999 81.4 623.8 78.1Q630.4 74.8 639.16 74.8Q652.24 74.8 660.04 81.4Q667.8399999999999 88.0 668.3199999999999 99.4H650.3199999999999Q649.9599999999999 95.2 647.02 92.80000000000001Q644.0799999999999 90.4 639.16 90.4Q633.76 90.4 630.88 93.16Q628.0 95.92 628.0 101.2V116.8Q628.0 121.96000000000001 630.88 124.78Q633.76 127.6 639.16 127.6Q644.0799999999999 127.6 647.02 125.25999999999999Q649.9599999999999 122.92 650.3199999999999 118.6H668.3199999999999Q667.8399999999999 130.0 660.04 136.6Q652.24 143.2 639.16 143.2Z" fill="#17130b"/><path d="M682.7199999999999 142.0V54.400000000000006H700.7199999999999V76.0L700.12 88.6H705.4L700.12 92.80000000000001Q700.12 84.4 704.92 79.6Q709.7199999999999 74.8 717.88 74.8Q727.4799999999999 74.8 733.3 81.52000000000001Q739.1199999999999 88.24000000000001 739.1199999999999 99.4V142.0H721.12V101.2Q721.12 96.03999999999999 718.42 93.22Q715.7199999999999 90.4 710.8 90.4Q706.0 90.4 703.3599999999999 93.22Q700.7199999999999 96.03999999999999 700.7199999999999 101.2V142.0Z" fill="#17130b"/></svg>